# xmcd
#
# Track frame offsets:
#	150
#	12965
#	27951
#	42704
#	56736
#	69102
#	83468
#	99109
#	114287
#	130261
#	139794
#	153976
#	169142
#	184417
#	198804
#
# Disc length: 2858 seconds
#
# Revision: 0
# Processed by: cddbd v1.5.2PL0 Copyright (c) Steve Scherf et al.
# Submitted via: EasyCDDAExtractor 16.0.8.2
#
DISCID=bc0b280f
DTITLE=Συλλογικός δίσκος - Ιστορία ρεμπέτικου τραγουδιού 1
DYEAR=2011
DGENRE=Ρεμπέτικη
TTITLE0=Νίνου Μαρίκα - Απόψε κάνεις μπαμ
TTITLE1=Τσιτσάνης Βασίλης-Νίνου Μαρίκα - Θα κάνω ντού βρε πονηρή
TTITLE2=Μαργαρίτης Γιώργος - Κάποια μάννα αναστενάζει
TTITLE3=Νικολαΐδης Απόστολος - Βαδίζω και παραμιλώ
TTITLE4=Μενιδιάτης Μιχάλης - Ο Καπετανάκης
TTITLE5=Δούκισσα - Αλήτη με είπες μιά βραδιά
TTITLE6=Πάνου Πόλυ - Μάγισσες φέρτε βότανα
TTITLE7=Διαμάντη Λίτσα - Το δικό σου το μαράζι
TTITLE8=Κόκοτας Σταμάτης - Αχάριστη
TTITLE9=Ζαγοραίος Σπύρος - Χρόνια στον Περαία
TTITLE10=Δούκισσα - Πιτσιρικάκι
TTITLE11=Πάνου Πόλυ - Παραπονιάρικο
TTITLE12=Ζαγοραίος Σπύρος - Όσοι έχουνε πολλά λεφτά
TTITLE13=Μενιδιάτης Μιχάλης - Ζωή γεμάτη βάσανα
TTITLE14=Χατζοπούλου Μαριάννα - Το φτωχοκάλυβο
EXTD=
EXTT0=
EXTT1=
EXTT2=
EXTT3=
EXTT4=
EXTT5=
EXTT6=
EXTT7=
EXTT8=
EXTT9=
EXTT10=
EXTT11=
EXTT12=
EXTT13=
EXTT14=
PLAYORDER=
